<svg
          width="476"
          height="241"
          viewBox="0 0 476 241"
          fill="none"
          xmlns="http://www.w3.org/2000/svg"
        >
          <path
            d="M240.5 0L339.66 60.25V180.75L240.5 241L141.34 180.75V60.25L240.5 0Z"
            fill="#30E7E7"
            fill-opacity="0.95"
          />
          <path
            d="M99.5 0L198.66 60.25V180.75L99.5 241L0.340088 180.75V60.25L99.5 0Z"
            fill="#30E79D"
            fill-opacity="0.95"
          />
          <path
            d="M376.5 0L475.66 60.25V180.75L376.5 241L277.34 180.75V60.25L376.5 0Z"
            fill="#30C5E7"
            fill-opacity="0.95"
          />
          <path
            d="M49.5711 118.16H52.5711V91.22H49.5711V81.32H73.9311C80.6111 81.32 85.9111 83.16 89.8311 86.84C93.7911 90.48 95.7711 96.42 95.7711 104.66C95.7711 112.9 93.7911 118.86 89.8311 122.54C85.9111 126.18 80.6111 128 73.9311 128H49.5711V118.16ZM72.8511 118.16C74.2111 118.16 75.2311 117.8 75.9111 117.08C76.5911 116.36 76.9311 115.24 76.9311 113.72V95.6C76.9311 92.64 75.5711 91.16 72.8511 91.16H69.3711V118.16H72.8511ZM97.7938 128V118.16H100.794V91.16H97.7938V81.32H120.594V91.16H117.594V118.16H120.594V128H97.7938ZM138.169 128.84C135.089 128.84 132.169 128.5 129.409 127.82C126.649 127.1 124.349 126.12 122.509 124.88V114.32H134.509V114.92C134.509 117.08 135.549 118.16 137.629 118.16C138.709 118.16 139.509 117.88 140.029 117.32C140.589 116.72 140.869 115.8 140.869 114.56V91.16H135.469V81.32H160.669V91.16H157.669V111.32C157.669 117.2 155.949 121.6 152.509 124.52C149.069 127.4 144.289 128.84 138.169 128.84ZM207.89 118.16H210.89V128H194.51L185.51 109.4L182.75 111.68V118.16H185.63V128H162.95V118.16H165.95V91.16H162.95V81.32H185.63V91.16H182.75V99.08L192.05 91.16H188.27V81.32H210.59V91.16H207.59L197.57 99.44L207.89 118.16ZM231.648 128.84C227.808 128.84 224.168 128.52 220.728 127.88C217.328 127.2 214.708 126.44 212.868 125.6V113.72H226.068C226.068 114.96 226.348 115.86 226.908 116.42C227.468 116.98 228.488 117.26 229.968 117.26C231.208 117.26 232.088 117.08 232.608 116.72C233.168 116.32 233.448 115.74 233.448 114.98C233.448 114.34 233.188 113.8 232.668 113.36C232.148 112.88 231.248 112.4 229.968 111.92L224.808 110.12C220.368 108.44 217.168 106.46 215.208 104.18C213.288 101.9 212.328 98.82 212.328 94.94C212.328 90.22 213.868 86.64 216.948 84.2C220.068 81.72 225.248 80.48 232.488 80.48C235.968 80.48 239.228 80.84 242.268 81.56C245.348 82.24 247.828 83.16 249.708 84.32V95.06H237.708C237.708 93.06 236.468 92.06 233.988 92.06C232.788 92.06 231.928 92.22 231.408 92.54C230.928 92.82 230.688 93.34 230.688 94.1C230.688 94.78 230.968 95.32 231.528 95.72C232.128 96.12 233.088 96.54 234.408 96.98L239.628 98.78C243.868 100.22 246.948 102.1 248.868 104.42C250.828 106.7 251.808 109.7 251.808 113.42C251.808 118.5 250.088 122.34 246.648 124.94C243.248 127.54 238.248 128.84 231.648 128.84ZM298.237 95.84H287.917V91.16H284.077V118.16H288.277V128H263.077V118.16H267.277V91.16H263.437V95.84H253.117V81.32H298.237V95.84ZM300.294 118.16H303.294V91.16H300.294V81.32H327.834C332.994 81.32 336.934 82.38 339.654 84.5C342.374 86.62 343.734 90.06 343.734 94.82C343.734 97.5 343.194 99.82 342.114 101.78C341.034 103.74 339.494 105.1 337.494 105.86L337.554 106.46C341.394 107.06 343.314 109.42 343.314 113.54V118.16H346.134V128H327.114V113.9C327.114 112.34 326.874 111.16 326.394 110.36C325.954 109.56 325.234 109.02 324.234 108.74C323.274 108.46 321.894 108.32 320.094 108.32V118.16H324.054V128H300.294V118.16ZM323.334 101C324.494 101 325.354 100.7 325.914 100.1C326.514 99.46 326.814 98.48 326.814 97.16V95C326.814 93.68 326.514 92.72 325.914 92.12C325.354 91.48 324.494 91.16 323.334 91.16H320.094V101H323.334ZM348.282 128V118.16H351.282V91.16H348.282V81.32H388.782V99.44H375.342V91.16H368.082V100.64H373.362V107.48H368.082V118.16H375.342V108.68H388.782V128H348.282ZM391.055 128V118.16H394.055V91.16H391.055V81.32H431.555V99.44H418.115V91.16H410.855V100.64H416.135V107.48H410.855V118.16H418.115V108.68H431.555V128H391.055Z"
            fill="black"
          />
        </svg>