<svg width="888" height="573" viewBox="0 0 888 573" fill="none" xmlns="http://www.w3.org/2000/svg">
<g clip-path="url(#clip0)">
<path d="M45.5 318.709H39.5V323.709H45.5V318.709Z" fill="#E6E6E6"/>
<path d="M613.029 323.709H601.206V318.709H613.029V323.709ZM589.383 323.709H577.559V318.709H589.383V323.709ZM565.735 323.709H553.912V318.709H565.735V323.709ZM542.089 323.709H530.265V318.709H542.089V323.709ZM518.441 323.709H506.618V318.709H518.441V323.709ZM494.794 323.709H482.971V318.709H494.794L494.794 323.709ZM471.147 323.709H459.324V318.709H471.147V323.709ZM447.5 323.709H435.677V318.709H447.5V323.709ZM423.853 323.709H412.03V318.709H423.853V323.709ZM400.206 323.709H388.382V318.709H400.206L400.206 323.709ZM376.559 323.709H364.735V318.709H376.559L376.559 323.709ZM352.912 323.709H341.088V318.709H352.912L352.912 323.709ZM329.265 323.709H317.441V318.709H329.265L329.265 323.709ZM305.618 323.709H293.794V318.709H305.618L305.618 323.709ZM281.971 323.709H270.147V318.709H281.971L281.971 323.709ZM258.324 323.709H246.5V318.709H258.324L258.324 323.709ZM234.677 323.709H222.853V318.709H234.677L234.677 323.709ZM211.03 323.709H199.206V318.709H211.03L211.03 323.709ZM187.382 323.709H175.559V318.709H187.382L187.382 323.709ZM163.735 323.709H151.912V318.709H163.735L163.735 323.709ZM140.088 323.709H128.265V318.709H140.088L140.088 323.709ZM116.441 323.709H104.618V318.709H116.441L116.441 323.709ZM92.7941 323.709H80.9707V318.709H92.7944L92.7941 323.709ZM69.1471 323.709H57.3237V318.709H69.1475L69.1471 323.709Z" fill="#E6E6E6"/>
<path d="M45.5 191.709H39.5V196.709H45.5V191.709Z" fill="#E6E6E6"/>
<path d="M613.029 196.709H601.206V191.709H613.029V196.709ZM589.383 196.709H577.559V191.709H589.383V196.709ZM565.735 196.709H553.912V191.709H565.735V196.709ZM542.089 196.709H530.265V191.709H542.089V196.709ZM518.441 196.709H506.618V191.709H518.441V196.709ZM494.794 196.709H482.971V191.709H494.794L494.794 196.709ZM471.147 196.709H459.324V191.709H471.147V196.709ZM447.5 196.709H435.677V191.709H447.5V196.709ZM423.853 196.709H412.03V191.709H423.853V196.709ZM400.206 196.709H388.382V191.709H400.206L400.206 196.709ZM376.559 196.709H364.735V191.709H376.559L376.559 196.709ZM352.912 196.709H341.088V191.709H352.912L352.912 196.709ZM329.265 196.709H317.441V191.709H329.265L329.265 196.709ZM305.618 196.709H293.794V191.709H305.618L305.618 196.709ZM281.971 196.709H270.147V191.709H281.971L281.971 196.709ZM258.324 196.709H246.5V191.709H258.324L258.324 196.709ZM234.677 196.709H222.853V191.709H234.677L234.677 196.709ZM211.03 196.709H199.206V191.709H211.03L211.03 196.709ZM187.382 196.709H175.559V191.709H187.382L187.382 196.709ZM163.735 196.709H151.912V191.709H163.735L163.735 196.709ZM140.088 196.709H128.265V191.709H140.088L140.088 196.709ZM116.441 196.709H104.618V191.709H116.441L116.441 196.709ZM92.7941 196.709H80.9707V191.709H92.7944L92.7941 196.709ZM69.1471 196.709H57.3237V191.709H69.1475L69.1471 196.709Z" fill="#E6E6E6"/>
<path d="M45.5 64.7088H39.5V69.7088H45.5V64.7088Z" fill="#E6E6E6"/>
<path d="M613.029 69.7089H601.206V64.7089H613.029V69.7089ZM589.383 69.7089H577.559V64.7089H589.383V69.7089ZM565.735 69.7089H553.912V64.7089H565.735V69.7089ZM542.089 69.7089H530.265V64.7089H542.089V69.7089ZM518.441 69.7089H506.618V64.7089H518.441V69.7089ZM494.794 69.7089H482.971V64.7089H494.794L494.794 69.7089ZM471.147 69.7089H459.324V64.7089H471.147V69.7089ZM447.5 69.7089H435.677V64.7089H447.5V69.7089ZM423.853 69.7089H412.03V64.7089H423.853V69.7089ZM400.206 69.7089H388.382V64.7089H400.206L400.206 69.7089ZM376.559 69.7089H364.735V64.7089H376.559L376.559 69.7089ZM352.912 69.7089H341.088V64.7089H352.912L352.912 69.7089ZM329.265 69.7089H317.441V64.7089H329.265L329.265 69.7089ZM305.618 69.7089H293.794V64.7089H305.618L305.618 69.7089ZM281.971 69.7089H270.147V64.7089H281.971L281.971 69.7089ZM258.324 69.7089H246.5V64.7089H258.324L258.324 69.7089ZM234.677 69.7089H222.853V64.7089H234.677L234.677 69.7089ZM211.03 69.7089H199.206V64.7089H211.03L211.03 69.7089ZM187.382 69.7089H175.559V64.7089H187.382L187.382 69.7089ZM163.735 69.7089H151.912V64.7089H163.735L163.735 69.7089ZM140.088 69.7089H128.265V64.7089H140.088L140.088 69.7089ZM116.441 69.7089H104.618V64.7089H116.441L116.441 69.7089ZM92.7941 69.7089H80.9707V64.7089H92.7944L92.7941 69.7089ZM69.1471 69.7089H57.3237V64.7089H69.1475L69.1471 69.7089Z" fill="#E6E6E6"/>
<path d="M235 320.209H186V500.209H235V320.209Z" fill="#3F3D56"/>
<path d="M244 320.209H195V500.209H244V320.209Z" fill="#2EDBDB"/>
<path d="M351 193.209H302V500.209H351V193.209Z" fill="#3F3D56"/>
<path d="M360 193.209H311V500.209H360V193.209Z" fill="#2EDBDB"/>
<path d="M467 66.2088H418V500.209H467V66.2088Z" fill="#3F3D56"/>
<path d="M476 66.2088H427V500.209H476V66.2088Z" fill="#2EDBDB"/>
<path d="M40 79.2088C46.6274 79.2088 52 73.8363 52 67.2088C52 60.5814 46.6274 55.2088 40 55.2088C33.3726 55.2088 28 60.5814 28 67.2088C28 73.8363 33.3726 79.2088 40 79.2088Z" fill="#E6E6E6"/>
<path d="M40 206.209C46.6274 206.209 52 200.836 52 194.209C52 187.581 46.6274 182.209 40 182.209C33.3726 182.209 28 187.581 28 194.209C28 200.836 33.3726 206.209 40 206.209Z" fill="#E6E6E6"/>
<path d="M40 333.209C46.6274 333.209 52 327.836 52 321.209C52 314.581 46.6274 309.209 40 309.209C33.3726 309.209 28 314.581 28 321.209C28 327.836 33.3726 333.209 40 333.209Z" fill="#E6E6E6"/>
<path d="M888 499.089H0V501.329H888V499.089Z" fill="#3F3D56"/>
<path d="M756.344 93.8323C775.142 93.8323 790.381 78.5933 790.381 59.7951C790.381 40.9969 775.142 25.7579 756.344 25.7579C737.546 25.7579 722.307 40.9969 722.307 59.7951C722.307 78.5933 737.546 93.8323 756.344 93.8323Z" fill="#2F2E41"/>
<path d="M674.011 283.797L672.171 294.836C672.171 294.836 662.052 332.553 674.931 330.713C687.81 328.873 683.21 296.676 683.21 296.676L685.05 286.556L674.011 283.797Z" fill="#FFB9B9"/>
<path d="M787.622 231.821H713.108C713.108 231.821 691.949 264.938 700.229 322.893C708.508 380.849 704.828 510.558 704.828 510.558H733.346L752.664 307.255L793.141 510.558L819.819 507.798L805.1 273.218L787.622 231.821Z" fill="#2F2E41"/>
<path d="M712.648 507.338L711.728 541.376C711.728 541.376 699.769 575.413 717.247 571.733C734.726 568.053 736.566 560.694 736.566 557.934C736.566 555.174 731.966 507.338 731.966 507.338H712.648Z" fill="#2F2E41"/>
<path d="M815.144 504.752L820.411 541.152C820.411 541.152 836.626 573.38 818.82 571.966C801.014 570.553 798.248 563.489 797.895 560.752C797.542 558.015 795.985 507.224 795.985 507.224L815.144 504.752Z" fill="#2F2E41"/>
<path d="M756.804 93.3723C770.522 93.3723 781.642 82.252 781.642 68.5344C781.642 54.8167 770.522 43.6964 756.804 43.6964C743.086 43.6964 731.966 54.8167 731.966 68.5344C731.966 82.252 743.086 93.3723 756.804 93.3723Z" fill="#FFB9B9"/>
<path d="M775.663 79.114L785.782 114.071L765.543 134.309L754.504 114.991L750.825 87.393L775.663 79.114Z" fill="#FFB9B9"/>
<path d="M784.402 102.572C784.402 102.572 783.047 93.293 780.045 94.2526C777.042 95.2122 750.365 101.652 750.365 104.411V116.37L728.286 201.923L722.767 236.881L780.722 235.961L789.921 114.531L784.402 102.572Z" fill="#E6E6E6"/>
<path d="M779.342 92.9124L785.782 94.7522L796.361 105.331C796.361 105.331 822.119 100.732 825.798 112.691C829.478 124.65 805.56 273.678 805.56 273.678C805.56 273.678 765.083 287.476 758.644 252.519C752.204 217.562 752.664 187.665 765.543 165.586C778.422 143.508 779.342 92.9124 779.342 92.9124Z" fill="#2F2E41"/>
<path d="M752.655 101.121L748.985 103.032L745.765 117.29C745.765 117.29 719.087 124.65 717.247 134.769C715.407 144.888 718.167 200.084 718.167 200.084C718.167 200.084 692.409 252.519 697.009 274.597C697.009 274.597 708.048 283.797 716.327 271.838C724.607 259.879 744.845 188.125 745.765 183.525C746.685 178.925 756.785 102.431 752.655 101.121Z" fill="#2F2E41"/>
<path d="M727.367 131.089L717.516 133.76L710.808 153.167L697.009 202.843L670.331 284.717L688.73 292.996L718.167 233.201L727.367 131.089Z" fill="#2F2E41"/>
<path d="M775.663 65.3147C759.847 59.6101 754.495 56.1056 737.026 65.3147L730.586 39.5568H782.102L775.663 65.3147Z" fill="#2F2E41"/>
<path d="M753.584 43.2365C764.254 43.2365 772.903 34.5873 772.903 23.918C772.903 13.2488 764.254 4.59964 753.584 4.59964C742.915 4.59964 734.266 13.2488 734.266 23.918C734.266 34.5873 742.915 43.2365 753.584 43.2365Z" fill="#2F2E41"/>
<path d="M730.586 19.3184C730.589 14.3572 732.501 9.58733 735.927 5.99883C739.353 2.41032 744.029 0.278709 748.985 0.046402C748.678 0.031912 748.375 -3.05176e-05 748.065 -3.05176e-05C742.941 -3.05176e-05 738.028 2.0353 734.405 5.6582C730.782 9.28111 728.746 14.1948 728.746 19.3184C728.746 24.4419 730.782 29.3557 734.405 32.9786C738.028 36.6015 742.941 38.6368 748.065 38.6368C748.375 38.6368 748.678 38.6049 748.985 38.5904C744.029 38.358 739.353 36.2265 735.927 32.638C732.501 29.0495 730.589 24.2796 730.586 19.3184Z" fill="#2F2E41"/>
<path d="M787.296 268.572L783.085 278.941C783.085 278.941 771.963 316.374 761.952 308.065C751.942 299.755 772.716 274.73 772.716 274.73L776.445 265.145L787.296 268.572Z" fill="#FFB9B9"/>
<path d="M812.919 115.451L825.798 112.691C827.628 118.111 829.111 123.641 830.238 129.249C832.078 138.449 829.238 211.123 827.398 218.482C825.558 225.841 792.199 274.877 792.199 274.877L762.178 268.363L805.56 202.843L812.919 115.451Z" fill="#2F2E41"/>
<path opacity="0.2" d="M806 162.209L798 206.209L768 267.209L795 203.209L806 162.209Z" fill="black"/>
</g>
<defs>
<clipPath id="clip0">
<rect width="888" height="572.011" fill="white"/>
</clipPath>
</defs>
</svg>
